<svg width="64" height="65" viewBox="0 0 64 65" fill="none" xmlns="http://www.w3.org/2000/svg">
<circle opacity="0.15" cx="32" cy="32.5905" r="32" fill="#22C1C1"/>
<path d="M45.7504 28.5905C45.7504 28.7894 45.6714 28.9801 45.5308 29.1208C45.3901 29.2614 45.1994 29.3405 45.0004 29.3405H42.7504V31.5905C42.7504 31.7894 42.6714 31.9801 42.5308 32.1208C42.3901 32.2614 42.1994 32.3405 42.0004 32.3405C41.8015 32.3405 41.6108 32.2614 41.4701 32.1208C41.3295 31.9801 41.2504 31.7894 41.2504 31.5905V29.3405H39.0004C38.8015 29.3405 38.6108 29.2614 38.4701 29.1208C38.3295 28.9801 38.2504 28.7894 38.2504 28.5905C38.2504 28.3915 38.3295 28.2008 38.4701 28.0601C38.6108 27.9195 38.8015 27.8405 39.0004 27.8405H41.2504V25.5905C41.2504 25.3915 41.3295 25.2008 41.4701 25.0601C41.6108 24.9195 41.8015 24.8405 42.0004 24.8405C42.1994 24.8405 42.3901 24.9195 42.5308 25.0601C42.6714 25.2008 42.7504 25.3915 42.7504 25.5905V27.8405H45.0004C45.1994 27.8405 45.3901 27.9195 45.5308 28.0601C45.6714 28.2008 45.7504 28.3915 45.7504 28.5905ZM34.0004 23.3405H35.2504V24.5905C35.2504 24.7894 35.3295 24.9801 35.4701 25.1208C35.6108 25.2614 35.8015 25.3405 36.0004 25.3405C36.1994 25.3405 36.3901 25.2614 36.5308 25.1208C36.6714 24.9801 36.7504 24.7894 36.7504 24.5905V23.3405H38.0004C38.1994 23.3405 38.3901 23.2614 38.5308 23.1208C38.6714 22.9801 38.7504 22.7894 38.7504 22.5905C38.7504 22.3915 38.6714 22.2008 38.5308 22.0601C38.3901 21.9195 38.1994 21.8405 38.0004 21.8405H36.7504V20.5905C36.7504 20.3915 36.6714 20.2008 36.5308 20.0601C36.3901 19.9195 36.1994 19.8405 36.0004 19.8405C35.8015 19.8405 35.6108 19.9195 35.4701 20.0601C35.3295 20.2008 35.2504 20.3915 35.2504 20.5905V21.8405H34.0004C33.8015 21.8405 33.6108 21.9195 33.4701 22.0601C33.3295 22.2008 33.2504 22.3915 33.2504 22.5905C33.2504 22.7894 33.3295 22.9801 33.4701 23.1208C33.6108 23.2614 33.8015 23.3405 34.0004 23.3405ZM42.9067 35.8755C42.9939 35.9771 43.0524 36.1003 43.0759 36.2322C43.0994 36.3641 43.0872 36.4999 43.0404 36.6255C42.3617 38.479 41.227 40.1318 39.741 41.4311C38.255 42.7303 36.4656 43.6343 34.538 44.0595C32.6104 44.4848 30.6067 44.4175 28.712 43.864C26.8173 43.3105 25.0925 42.2885 23.697 40.8925C22.3014 39.4965 21.28 37.7714 20.7272 35.8765C20.1743 33.9816 20.1077 31.9779 20.5335 30.0505C20.9594 28.123 21.864 26.3339 23.1638 24.8483C24.4635 23.3627 26.1166 22.2285 27.9704 21.5505C28.0953 21.505 28.2299 21.4936 28.3606 21.5173C28.4913 21.541 28.6134 21.5989 28.7143 21.6852C28.8153 21.7716 28.8915 21.8832 28.9352 22.0086C28.9789 22.1341 28.9884 22.2688 28.9629 22.3992C28.6415 24.0305 28.6852 25.7127 29.0909 27.325C29.4966 28.9374 30.2542 30.44 31.3093 31.7249C32.3644 33.0098 33.6909 34.0452 35.1936 34.7568C36.6963 35.4683 38.3378 35.8384 40.0004 35.8405C40.736 35.8407 41.4699 35.7695 42.1917 35.628C42.3221 35.6021 42.4571 35.6114 42.5827 35.6549C42.7083 35.6984 42.8201 35.7745 42.9067 35.8755ZM41.1104 37.293C40.7421 37.3246 40.3721 37.3405 40.0004 37.3405C36.6202 37.3365 33.3794 35.9919 30.9892 33.6017C28.599 31.2115 27.2544 27.9707 27.2504 24.5905C27.2504 24.2196 27.2663 23.8496 27.2979 23.4805C25.8656 24.221 24.6282 25.289 23.6862 26.5976C22.7443 27.9063 22.1244 29.4188 21.8768 31.0121C21.6293 32.6054 21.7612 34.2346 22.2617 35.7674C22.7622 37.3002 23.6173 38.6932 24.7575 39.8334C25.8977 40.9736 27.2907 41.8287 28.8235 42.3292C30.3563 42.8297 31.9855 42.9616 33.5788 42.7141C35.1721 42.4665 36.6846 41.8466 37.9933 40.9047C39.3019 39.9627 40.3699 38.7253 41.1104 37.293Z" fill="#22C1C1"/>
</svg>
