<svg width="33" height="33" viewBox="0 0 33 33" fill="none" xmlns="http://www.w3.org/2000/svg">
<g clip-path="url(#clip0_41_1574)">
<path d="M29.25 14.0905C29.25 13.3611 28.9603 12.6616 28.4445 12.1459C27.9288 11.6302 27.2293 11.3405 26.5 11.3405H17.25V9.76547C18.0965 9.59148 18.8571 9.13094 19.4036 8.4615C19.9501 7.79205 20.249 6.95465 20.25 6.09047C20.25 2.72797 17.0525 0.556718 16.9163 0.465468C16.793 0.383238 16.6482 0.339355 16.5 0.339355C16.3518 0.339355 16.207 0.383238 16.0837 0.465468C15.9475 0.556718 12.75 2.72797 12.75 6.09047C12.751 6.95465 13.0499 7.79205 13.5964 8.4615C14.1429 9.13094 14.9035 9.59148 15.75 9.76547V11.3405H6.5C5.77065 11.3405 5.07118 11.6302 4.55546 12.1459C4.03973 12.6616 3.75 13.3611 3.75 14.0905V17.0067C3.75082 18.072 4.10224 19.1073 4.75 19.953V25.0905C4.75 25.8198 5.03973 26.5193 5.55546 27.035C6.07118 27.5507 6.77065 27.8405 7.5 27.8405H25.5C26.2293 27.8405 26.9288 27.5507 27.4445 27.035C27.9603 26.5193 28.25 25.8198 28.25 25.0905V19.953C28.8978 19.1073 29.2492 18.072 29.25 17.0067V14.0905ZM14.25 6.09047C14.25 4.16547 15.75 2.66422 16.5 2.03547C17.25 2.66047 18.75 4.16047 18.75 6.09047C18.75 6.6872 18.5129 7.2595 18.091 7.68146C17.669 8.10342 17.0967 8.34047 16.5 8.34047C15.9033 8.34047 15.331 8.10342 14.909 7.68146C14.4871 7.2595 14.25 6.6872 14.25 6.09047ZM5.25 14.0905C5.25 13.7589 5.3817 13.441 5.61612 13.2066C5.85054 12.9722 6.16848 12.8405 6.5 12.8405H26.5C26.8315 12.8405 27.1495 12.9722 27.3839 13.2066C27.6183 13.441 27.75 13.7589 27.75 14.0905V17.0067C27.75 18.7967 26.3338 20.2917 24.5925 20.3392C24.1581 20.3516 23.7256 20.2767 23.3206 20.119C22.9157 19.9613 22.5465 19.724 22.2348 19.4211C21.9232 19.1182 21.6755 18.7559 21.5063 18.3555C21.3371 17.9552 21.25 17.5251 21.25 17.0905C21.25 16.8916 21.171 16.7008 21.0303 16.5601C20.8897 16.4195 20.6989 16.3405 20.5 16.3405C20.3011 16.3405 20.1103 16.4195 19.9697 16.5601C19.829 16.7008 19.75 16.8916 19.75 17.0905C19.75 17.9524 19.4076 18.7791 18.7981 19.3886C18.1886 19.9981 17.362 20.3405 16.5 20.3405C15.638 20.3405 14.8114 19.9981 14.2019 19.3886C13.5924 18.7791 13.25 17.9524 13.25 17.0905C13.25 16.8916 13.171 16.7008 13.0303 16.5601C12.8897 16.4195 12.6989 16.3405 12.5 16.3405C12.3011 16.3405 12.1103 16.4195 11.9697 16.5601C11.829 16.7008 11.75 16.8916 11.75 17.0905C11.7502 17.5252 11.6631 17.9555 11.4941 18.3559C11.325 18.7564 11.0773 19.1189 10.7656 19.4219C10.454 19.7249 10.0847 19.9624 9.67965 20.1201C9.2746 20.2779 8.84202 20.3528 8.4075 20.3405C6.66625 20.2917 5.25 18.7967 5.25 17.0067V14.0905ZM25.5 26.3405H7.5C7.16848 26.3405 6.85054 26.2088 6.61612 25.9744C6.3817 25.7399 6.25 25.422 6.25 25.0905V21.2542C6.89812 21.6178 7.62467 21.819 8.3675 21.8405C9.00264 21.8593 9.63507 21.7499 10.227 21.5188C10.8189 21.2877 11.3581 20.9397 11.8125 20.4955C12.0725 20.2413 12.3031 19.9587 12.5 19.653C12.9297 20.3239 13.5213 20.876 14.2203 21.2584C14.9193 21.6408 15.7032 21.8412 16.5 21.8412C17.2968 21.8412 18.0807 21.6408 18.7797 21.2584C19.4787 20.876 20.0703 20.3239 20.5 19.653C20.6977 19.9588 20.9291 20.2414 21.19 20.4955C22.0742 21.3605 23.263 21.8436 24.5 21.8405H24.6338C25.3762 21.8188 26.1023 21.6176 26.75 21.2542V25.0905C26.75 25.422 26.6183 25.7399 26.3839 25.9744C26.1495 26.2088 25.8315 26.3405 25.5 26.3405Z" fill="#22C1C1"/>
</g>
<defs>
<clipPath id="clip0_41_1574">
<rect width="32" height="32" fill="white" transform="translate(0.5 0.0904541)"/>
</clipPath>
</defs>
</svg>
