<svg width="32" height="33" viewBox="0 0 32 33" fill="none" xmlns="http://www.w3.org/2000/svg">
<path d="M26.0005 3.34045H21.0005C20.8016 3.34045 20.6108 3.41947 20.4701 3.56012C20.3295 3.70078 20.2505 3.89154 20.2505 4.09045C20.2505 4.28937 20.3295 4.48013 20.4701 4.62078C20.6108 4.76144 20.8016 4.84045 21.0005 4.84045H24.1905L20.4405 8.58295C19.5583 7.70881 18.4791 7.05945 17.2935 6.68958C16.108 6.31971 14.851 6.24015 13.6283 6.45762C12.4056 6.67508 11.253 7.1832 10.2677 7.93916C9.28245 8.69513 8.49326 9.6768 7.96664 10.8015C7.44002 11.9262 7.1914 13.161 7.24172 14.4019C7.29203 15.6427 7.63981 16.8533 8.25575 17.9317C8.8717 19.0101 9.73778 19.9246 10.781 20.5983C11.8243 21.2721 13.0142 21.6852 14.2505 21.803V24.3405H11.0005C10.8016 24.3405 10.6108 24.4195 10.4701 24.5601C10.3295 24.7008 10.2505 24.8915 10.2505 25.0905C10.2505 25.2894 10.3295 25.4801 10.4701 25.6208C10.6108 25.7614 10.8016 25.8405 11.0005 25.8405H14.2505V29.0905C14.2505 29.2894 14.3295 29.4801 14.4701 29.6208C14.6108 29.7614 14.8016 29.8405 15.0005 29.8405C15.1994 29.8405 15.3902 29.7614 15.5308 29.6208C15.6715 29.4801 15.7505 29.2894 15.7505 29.0905V25.8405H19.0005C19.1994 25.8405 19.3902 25.7614 19.5308 25.6208C19.6715 25.4801 19.7505 25.2894 19.7505 25.0905C19.7505 24.8915 19.6715 24.7008 19.5308 24.5601C19.3902 24.4195 19.1994 24.3405 19.0005 24.3405H15.7505V21.803C17.0879 21.6721 18.3683 21.1958 19.4661 20.4207C20.5638 19.6456 21.4412 18.5984 22.012 17.3819C22.5828 16.1653 22.8275 14.8212 22.7221 13.4816C22.6166 12.1419 22.1646 10.8527 21.4105 9.74045L25.2505 5.90045V9.09045C25.2505 9.28937 25.3295 9.48013 25.4701 9.62078C25.6108 9.76144 25.8016 9.84045 26.0005 9.84045C26.1994 9.84045 26.3902 9.76144 26.5308 9.62078C26.6715 9.48013 26.7505 9.28937 26.7505 9.09045V4.09045C26.7505 3.89154 26.6715 3.70078 26.5308 3.56012C26.3902 3.41947 26.1994 3.34045 26.0005 3.34045ZM15.0005 20.3405C13.7643 20.3405 12.556 19.9739 11.5282 19.2871C10.5004 18.6004 9.69927 17.6243 9.22623 16.4822C8.75318 15.3402 8.62941 14.0835 8.87057 12.8711C9.11172 11.6588 9.70698 10.5451 10.5811 9.67104C11.4551 8.79696 12.5688 8.2017 13.7812 7.96055C14.9935 7.71939 16.2502 7.84316 17.3922 8.31621C18.5343 8.78925 19.5104 9.59033 20.1972 10.6181C20.8839 11.6459 21.2505 12.8543 21.2505 14.0905C21.2485 15.7474 20.5894 17.336 19.4177 18.5077C18.246 19.6794 16.6575 20.3385 15.0005 20.3405Z" fill="#F24E1E"/>
</svg>
