<svg width="64" height="65" viewBox="0 0 64 65" fill="none" xmlns="http://www.w3.org/2000/svg">
<circle opacity="0.15" cx="32" cy="32.5905" r="32" fill="#F21E84"/>
<path d="M44 29.8405H42.7213C42.5228 27.1326 41.3071 24.6002 39.3183 22.7519C37.3296 20.9035 34.7151 19.8761 32 19.8761C29.2849 19.8761 26.6704 20.9035 24.6817 22.7519C22.6929 24.6002 21.4772 27.1326 21.2787 29.8405H20C19.8011 29.8405 19.6103 29.9195 19.4697 30.0601C19.329 30.2008 19.25 30.3915 19.25 30.5905C19.2545 32.9486 19.9106 35.2596 21.1459 37.2682C22.3811 39.2769 24.1475 40.9051 26.25 41.973V42.5905C26.25 43.0546 26.4344 43.4997 26.7626 43.8279C27.0908 44.1561 27.5359 44.3405 28 44.3405H36C36.4641 44.3405 36.9092 44.1561 37.2374 43.8279C37.5656 43.4997 37.75 43.0546 37.75 42.5905V41.973C39.8525 40.9051 41.6189 39.2769 42.8541 37.2682C44.0894 35.2596 44.7455 32.9486 44.75 30.5905C44.75 30.3915 44.671 30.2008 44.5303 30.0601C44.3897 29.9195 44.1989 29.8405 44 29.8405ZM37.78 23.3767C38.1429 23.6674 38.4835 23.9849 38.7987 24.3267C37.4066 24.76 36.1172 25.4724 35.0094 26.4204C33.9015 27.3683 32.9984 28.532 32.355 29.8405H28.1675C28.7582 27.9592 29.9328 26.315 31.5209 25.1462C33.109 23.9775 35.0282 23.345 37 23.3405C37.26 23.3405 37.5212 23.3542 37.78 23.3767ZM39.7875 25.608C40.6052 26.8796 41.0964 28.3334 41.2175 29.8405H34.06C34.6871 28.791 35.5162 27.8765 36.4994 27.15C37.4826 26.4234 38.6002 25.8993 39.7875 25.608ZM32 21.3405C33.1458 21.3386 34.2819 21.5505 35.35 21.9655C33.2869 22.2911 31.3627 23.2085 29.8109 24.6064C28.259 26.0043 27.1462 27.8225 26.6075 29.8405H22.7825C22.9734 27.526 24.0268 25.3677 25.7341 23.7934C27.4413 22.219 29.6777 21.3436 32 21.3405ZM36.6875 40.8205C36.5568 40.8803 36.4462 40.9765 36.3686 41.0975C36.291 41.2185 36.2499 41.3592 36.25 41.503V42.5905C36.25 42.6568 36.2237 42.7203 36.1768 42.7672C36.1299 42.8141 36.0663 42.8405 36 42.8405H28C27.9337 42.8405 27.8701 42.8141 27.8232 42.7672C27.7763 42.7203 27.75 42.6568 27.75 42.5905V41.503C27.7501 41.3592 27.709 41.2185 27.6314 41.0975C27.5538 40.9765 27.4432 40.8803 27.3125 40.8205C25.4727 39.972 23.8949 38.6442 22.7447 36.9763C21.5945 35.3084 20.9142 33.3617 20.775 31.3405H43.225C43.0858 33.3617 42.4055 35.3084 41.2553 36.9763C40.1051 38.6442 38.5273 39.972 36.6875 40.8205Z" fill="#F21E84"/>
</svg>
