<svg width="32" height="33" viewBox="0 0 32 33" fill="none" xmlns="http://www.w3.org/2000/svg">
<path d="M10.4401 28.0903H19.5936C25.3683 28.0903 28 23.8227 28 19.8602C27.9565 18.9305 27.7249 18.0196 27.3196 17.1831C26.9142 16.3467 26.3435 15.6023 25.6425 14.9955C24.2005 13.6128 22.2973 12.8222 20.3062 12.779C18.9763 12.8527 17.686 13.2613 16.5536 13.9671C15.4212 14.6729 14.4828 15.6535 13.8245 16.819C13.3756 15.9194 12.7263 14.6146 12.2085 13.5657H13.9062C14.4088 13.5339 14.8861 13.333 15.2614 12.9953C15.6368 12.6575 15.8885 12.2025 15.976 11.7034C16.2904 11.4389 16.5405 11.1055 16.7074 10.7288C16.8742 10.352 16.9534 9.94189 16.9387 9.52968C16.9387 6.57489 13.6545 5.09185 11.8293 5.09185C9.33631 5.03294 8.61327 6.85488 7.96558 8.48477L7.93752 8.55739C7.53431 9.59988 4.00005 18.8386 4.00005 21.6442C3.99317 23.3579 4.65527 25.0058 5.84374 26.2329C6.44509 26.8394 7.16258 27.3167 7.95269 27.6357C8.7428 27.9547 9.58905 28.1088 10.4401 28.0887V28.0903ZM9.4309 9.15045C10.1307 7.38742 10.5187 6.70641 11.7604 6.70641H11.8149C13.0101 6.70641 15.3347 7.70291 15.3347 9.53049C15.3563 9.71446 15.3283 9.90004 15.2529 10.0695V10.0703C15.1515 9.93322 15.0276 9.81453 14.8866 9.7193C14.7662 9.63427 14.624 9.58608 14.477 9.58051H14.0513C13.6361 9.05362 12.36 8.11845 11.3668 8.29435L12.4064 9.62489H13.8918L14.1066 10.1405C14.3728 10.7779 14.2806 11.095 14.1948 11.2338C14.1589 11.2921 14.1101 11.3414 14.0523 11.3777C13.9945 11.4141 13.9292 11.4366 13.8614 11.4436H8.82569L9.32108 12.0931C9.53832 12.378 9.82689 12.5999 10.1099 12.7685C10.1115 12.8898 10.1402 13.0093 10.194 13.1179L10.4161 13.5657V13.5673C10.8866 14.5154 11.9752 16.7117 12.5612 17.8833C12.5411 17.9123 12.5211 17.9422 12.5026 17.9721L10.1836 21.7652C10.0722 21.9475 10.0373 22.1669 10.0866 22.3751C10.1359 22.5834 10.2654 22.7633 10.4465 22.8755C10.6277 22.9876 10.8456 23.0227 11.0525 22.9731C11.2593 22.9234 11.4381 22.7931 11.5495 22.6108L13.6337 19.2001C13.7058 19.2171 13.778 19.2268 13.8525 19.2276C13.9335 19.2243 14.0137 19.2114 14.0914 19.1896L16.2437 22.7585C16.3541 22.9414 16.5321 23.0728 16.7386 23.1236C16.9452 23.1745 17.1633 23.1406 17.3451 23.0296C17.5269 22.9185 17.6574 22.7393 17.7079 22.5314C17.7584 22.3235 17.7248 22.1039 17.6145 21.9209L15.2385 17.9809C15.2043 17.9247 15.1669 17.8705 15.1263 17.8188C15.6229 16.8467 16.3608 16.0203 17.2682 15.4199C18.1757 14.8195 19.2219 14.4654 20.3054 14.3919C21.8926 14.4331 23.4076 15.0697 24.5539 16.1768C25.0894 16.6362 25.5283 17.1987 25.8448 17.8312C26.1612 18.4637 26.3489 19.1536 26.3968 19.8602C26.396 23.1538 24.2918 26.4766 19.5936 26.4766H10.4401C9.80214 26.495 9.16708 26.3829 8.57338 26.1471C7.97967 25.9114 7.43966 25.5568 6.98602 25.1049C6.09418 24.1834 5.5981 22.9459 5.60486 21.6595C5.60486 19.5293 8.36878 11.9011 9.4309 9.15045Z" fill="#9747FF"/>
</svg>
