<svg width="33" height="33" viewBox="0 0 33 33" fill="none" xmlns="http://www.w3.org/2000/svg">
<path d="M12 17.3405C11.7528 17.3405 11.5111 17.2671 11.3055 17.1298C11.1 16.9924 10.9398 16.7972 10.8452 16.5688C10.7505 16.3404 10.7258 16.0891 10.774 15.8466C10.8223 15.6041 10.9413 15.3814 11.1161 15.2066C11.2909 15.0318 11.5137 14.9127 11.7561 14.8645C11.9986 14.8162 12.25 14.841 12.4784 14.9356C12.7068 15.0302 12.902 15.1904 13.0393 15.396C13.1767 15.6016 13.25 15.8432 13.25 16.0905C13.25 16.422 13.1183 16.7399 12.8839 16.9743C12.6495 17.2088 12.3315 17.3405 12 17.3405ZM21 14.8405C20.7528 14.8405 20.5111 14.9138 20.3055 15.0511C20.1 15.1885 19.9398 15.3837 19.8452 15.6121C19.7505 15.8405 19.7258 16.0918 19.774 16.3343C19.8223 16.5768 19.9413 16.7995 20.1161 16.9743C20.2909 17.1492 20.5137 17.2682 20.7561 17.3164C20.9986 17.3647 21.25 17.3399 21.4784 17.2453C21.7068 17.1507 21.902 16.9905 22.0393 16.7849C22.1767 16.5794 22.25 16.3377 22.25 16.0905C22.25 15.7589 22.1183 15.441 21.8839 15.2066C21.6495 14.9721 21.3315 14.8405 21 14.8405ZM19.6 20.4555C18.6694 21.0336 17.5956 21.3399 16.5 21.3399C15.4044 21.3399 14.3307 21.0336 13.4 20.4555C13.2316 20.3494 13.0279 20.3145 12.8338 20.3586C12.6397 20.4027 12.4711 20.522 12.365 20.6905C12.2589 20.8589 12.2241 21.0625 12.2682 21.2566C12.3122 21.4507 12.4316 21.6194 12.6 21.7255C13.7702 22.4545 15.1213 22.841 16.5 22.841C17.8787 22.841 19.2298 22.4545 20.4 21.7255C20.4834 21.6729 20.5556 21.6045 20.6126 21.524C20.6695 21.4436 20.71 21.3527 20.7319 21.2566C20.7537 21.1605 20.7564 21.061 20.7397 20.9639C20.7231 20.8668 20.6875 20.7738 20.635 20.6905C20.5825 20.6071 20.514 20.5348 20.4336 20.4779C20.3532 20.421 20.2623 20.3804 20.1662 20.3586C20.0701 20.3368 19.9706 20.3341 19.8735 20.3507C19.7763 20.3673 19.6834 20.4029 19.6 20.4555ZM29.25 16.0905C29.25 18.6122 28.5022 21.0772 27.1012 23.174C25.7003 25.2707 23.709 26.9049 21.3792 27.8699C19.0495 28.8349 16.4859 29.0874 14.0126 28.5955C11.5393 28.1035 9.26751 26.8892 7.48439 25.1061C5.70127 23.3229 4.48696 21.0511 3.99499 18.5779C3.50303 16.1046 3.75552 13.541 4.72054 11.2112C5.68556 8.88148 7.31976 6.8902 9.41648 5.48922C11.5132 4.08823 13.9783 3.34045 16.5 3.34045C19.8803 3.34442 23.121 4.689 25.5112 7.07923C27.9015 9.46946 29.246 12.7102 29.25 16.0905ZM27.75 16.0905C27.7465 13.1713 26.6098 10.3675 24.5794 8.26999C22.5491 6.1725 19.7838 4.94519 16.8663 4.8467C15.2875 6.9942 15.25 9.0717 15.25 9.09045C15.25 9.42197 15.3817 9.73992 15.6161 9.97434C15.8505 10.2088 16.1685 10.3405 16.5 10.3405C16.8315 10.3405 17.1495 10.2088 17.3839 9.97434C17.6183 9.73992 17.75 9.42197 17.75 9.09045C17.75 8.89154 17.829 8.70078 17.9697 8.56012C18.1103 8.41947 18.3011 8.34045 18.5 8.34045C18.6989 8.34045 18.8897 8.41947 19.0303 8.56012C19.171 8.70078 19.25 8.89154 19.25 9.09045C19.25 9.8198 18.9603 10.5193 18.4445 11.035C17.9288 11.5507 17.2294 11.8405 16.5 11.8405C15.7707 11.8405 15.0712 11.5507 14.5555 11.035C14.0397 10.5193 13.75 9.8198 13.75 9.09045C13.75 8.9967 13.7688 7.11295 15.0175 4.93795C12.8746 5.22282 10.8592 6.11905 9.21233 7.51941C7.56549 8.91977 6.35697 10.765 5.73138 12.8342C5.1058 14.9034 5.08963 17.1091 5.68481 19.1873C6.28 21.2655 7.46134 23.1282 9.08748 24.5525C10.7136 25.9769 12.7157 26.9026 14.8542 27.2188C16.9927 27.5351 19.177 27.2285 21.1458 26.3358C23.1146 25.4431 24.7845 24.002 25.9557 22.1851C27.127 20.3681 27.7499 18.2522 27.75 16.0905Z" fill="#FFC700"/>
</svg>
