<svg width="33" height="33" viewBox="0 0 33 33" fill="none" xmlns="http://www.w3.org/2000/svg">
<path d="M16.5003 8.84046C17.242 8.84046 17.967 8.62052 18.5837 8.20847C19.2003 7.79641 19.681 7.21074 19.9648 6.52552C20.2487 5.8403 20.3229 5.0863 20.1782 4.35887C20.0335 3.63144 19.6764 2.96325 19.1519 2.43881C18.6275 1.91436 17.9593 1.55721 17.2319 1.41251C16.5044 1.26782 15.7504 1.34208 15.0652 1.62591C14.38 1.90974 13.7943 2.39038 13.3823 3.00707C12.9702 3.62375 12.7503 4.34878 12.7503 5.09046C12.7503 6.08502 13.1454 7.03884 13.8486 7.74211C14.5519 8.44537 15.5057 8.84046 16.5003 8.84046ZM16.5003 2.84046C16.9453 2.84046 17.3803 2.97242 17.7503 3.21965C18.1203 3.46688 18.4087 3.81828 18.579 4.22942C18.7493 4.64055 18.7939 5.09295 18.707 5.52941C18.6202 5.96587 18.4059 6.36678 18.0913 6.68145C17.7766 6.99611 17.3757 7.21041 16.9392 7.29722C16.5028 7.38404 16.0504 7.33948 15.6392 7.16918C15.2281 6.99889 14.8767 6.7105 14.6295 6.34049C14.3822 5.97048 14.2503 5.53546 14.2503 5.09046C14.2503 4.49372 14.4873 3.92142 14.9093 3.49947C15.3312 3.07751 15.9035 2.84046 16.5003 2.84046ZM27.6103 17.018L21.959 10.6105C21.6072 10.2114 21.1744 9.89171 20.6895 9.67274C20.2046 9.45378 19.6786 9.3405 19.1465 9.34046H13.854C13.3221 9.34035 12.7962 9.45342 12.3112 9.67217C11.8263 9.89092 11.3935 10.2103 11.0415 10.6092L5.39028 17.018C5.18032 17.2259 5.01339 17.4732 4.89902 17.7457C4.78464 18.0182 4.72505 18.3106 4.72366 18.6061C4.72084 19.2029 4.95524 19.7764 5.37528 20.2005C5.79531 20.6245 6.36658 20.8643 6.96342 20.8671C7.56025 20.8699 8.13376 20.6355 8.55778 20.2155L11.1965 18.0992L8.93028 26.7055C8.69203 27.2469 8.67656 27.8603 8.88722 28.413C9.09788 28.9657 9.51771 29.4133 10.0559 29.6588C10.594 29.9043 11.2072 29.928 11.7627 29.7248C12.3182 29.5215 12.7713 29.1078 13.024 28.573L16.5003 22.5905L19.9765 28.5792C20.2292 29.114 20.6824 29.5278 21.2379 29.731C21.7934 29.9342 22.4065 29.9105 22.9447 29.665C23.4828 29.4195 23.9027 28.972 24.1133 28.4193C24.324 27.8665 24.3085 27.2531 24.0703 26.7117L21.804 18.103L24.4428 20.2155C24.8693 20.621 25.4378 20.8432 26.0263 20.8345C26.6148 20.8257 27.1765 20.5868 27.5908 20.1688C28.0052 19.7508 28.2393 19.1871 28.2429 18.5986C28.2466 18.01 28.0195 17.4435 27.6103 17.0205V17.018ZM26.5315 19.1205C26.4619 19.1902 26.3792 19.2455 26.2881 19.2833C26.1971 19.321 26.0995 19.3404 26.0009 19.3404C25.9023 19.3404 25.8047 19.321 25.7137 19.2833C25.6226 19.2455 25.5399 19.1902 25.4703 19.1205C25.4513 19.1005 25.4309 19.0821 25.409 19.0655L20.9703 15.5055C20.8472 15.4067 20.6962 15.3492 20.5387 15.3413C20.3811 15.3333 20.225 15.3752 20.0927 15.4611C19.9603 15.5469 19.8584 15.6723 19.8014 15.8194C19.7444 15.9665 19.7353 16.1279 19.7753 16.2805L22.634 27.1467C22.6465 27.1894 22.662 27.2312 22.6803 27.2717C22.7643 27.4521 22.7733 27.6584 22.7052 27.8453C22.6371 28.0323 22.4975 28.1845 22.3172 28.2686C22.1368 28.3526 21.9305 28.3616 21.7435 28.2935C21.5566 28.2254 21.4043 28.0858 21.3203 27.9055C21.3111 27.8848 21.3007 27.8648 21.289 27.8455L17.149 20.7155C17.0831 20.6018 16.9885 20.5075 16.8746 20.4419C16.7608 20.3763 16.6317 20.3418 16.5003 20.3418C16.3689 20.3418 16.2398 20.3763 16.1259 20.4419C16.0121 20.5075 15.9175 20.6018 15.8515 20.7155L11.7115 27.8467C11.6999 27.866 11.6894 27.8861 11.6803 27.9067C11.5962 28.0871 11.444 28.2266 11.257 28.2947C11.0701 28.3628 10.8637 28.3539 10.6834 28.2698C10.5031 28.1858 10.3635 28.0336 10.2954 27.8466C10.2273 27.6596 10.2362 27.4533 10.3203 27.273C10.3386 27.2324 10.354 27.1906 10.3665 27.148L13.2253 16.2817C13.2647 16.1297 13.2553 15.9691 13.1986 15.8227C13.1418 15.6762 13.0406 15.5513 12.909 15.4655C12.7876 15.3855 12.6457 15.3421 12.5003 15.3405C12.3294 15.3403 12.1636 15.3985 12.0303 15.5055L7.59153 19.0655C7.56968 19.0821 7.5492 19.1005 7.53028 19.1205C7.38954 19.2612 7.19867 19.3402 6.99965 19.3402C6.80063 19.3402 6.60976 19.2612 6.46903 19.1205C6.32829 18.9797 6.24923 18.7889 6.24923 18.5898C6.24923 18.3908 6.32829 18.1999 6.46903 18.0592L6.50153 18.0255L12.1665 11.6017C12.3777 11.3624 12.6374 11.1707 12.9284 11.0395C13.2193 10.9082 13.5348 10.8404 13.854 10.8405H19.1465C19.4657 10.8404 19.7812 10.9082 20.0722 11.0395C20.3631 11.1707 20.6228 11.3624 20.834 11.6017L26.5003 18.0255L26.5328 18.0592C26.6024 18.1289 26.6576 18.2117 26.6953 18.3028C26.7329 18.3939 26.7522 18.4915 26.7521 18.5901C26.752 18.6887 26.7325 18.7862 26.6946 18.8772C26.6568 18.9682 26.6013 19.0509 26.5315 19.1205Z" fill="#F21E84"/>
</svg>
