<svg width="64" height="65" viewBox="0 0 64 65" fill="none" xmlns="http://www.w3.org/2000/svg">
<circle opacity="0.15" cx="32" cy="32.5905" r="32" fill="#F69134"/>
<path d="M47 31.8405H45.75V27.5905C45.75 27.1263 45.5656 26.6812 45.2374 26.353C44.9092 26.0248 44.4641 25.8405 44 25.8405H41.75V24.5905C41.75 24.1263 41.5656 23.6812 41.2374 23.353C40.9092 23.0248 40.4641 22.8405 40 22.8405H37C36.5359 22.8405 36.0908 23.0248 35.7626 23.353C35.4344 23.6812 35.25 24.1263 35.25 24.5905V31.8405H28.75V24.5905C28.75 24.1263 28.5656 23.6812 28.2374 23.353C27.9092 23.0248 27.4641 22.8405 27 22.8405H24C23.5359 22.8405 23.0908 23.0248 22.7626 23.353C22.4344 23.6812 22.25 24.1263 22.25 24.5905V25.8405H20C19.5359 25.8405 19.0908 26.0248 18.7626 26.353C18.4344 26.6812 18.25 27.1263 18.25 27.5905V31.8405H17C16.8011 31.8405 16.6103 31.9195 16.4697 32.0601C16.329 32.2008 16.25 32.3915 16.25 32.5905C16.25 32.7894 16.329 32.9801 16.4697 33.1208C16.6103 33.2614 16.8011 33.3405 17 33.3405H18.25V37.5905C18.25 38.0546 18.4344 38.4997 18.7626 38.8279C19.0908 39.1561 19.5359 39.3405 20 39.3405H22.25V40.5905C22.25 41.0546 22.4344 41.4997 22.7626 41.8279C23.0908 42.1561 23.5359 42.3405 24 42.3405H27C27.4641 42.3405 27.9092 42.1561 28.2374 41.8279C28.5656 41.4997 28.75 41.0546 28.75 40.5905V33.3405H35.25V40.5905C35.25 41.0546 35.4344 41.4997 35.7626 41.8279C36.0908 42.1561 36.5359 42.3405 37 42.3405H40C40.4641 42.3405 40.9092 42.1561 41.2374 41.8279C41.5656 41.4997 41.75 41.0546 41.75 40.5905V39.3405H44C44.4641 39.3405 44.9092 39.1561 45.2374 38.8279C45.5656 38.4997 45.75 38.0546 45.75 37.5905V33.3405H47C47.1989 33.3405 47.3897 33.2614 47.5303 33.1208C47.671 32.9801 47.75 32.7894 47.75 32.5905C47.75 32.3915 47.671 32.2008 47.5303 32.0601C47.3897 31.9195 47.1989 31.8405 47 31.8405ZM20 37.8405C19.9337 37.8405 19.8701 37.8141 19.8232 37.7672C19.7763 37.7203 19.75 37.6568 19.75 37.5905V27.5905C19.75 27.5241 19.7763 27.4606 19.8232 27.4137C19.8701 27.3668 19.9337 27.3405 20 27.3405H22.25V37.8405H20ZM27.25 40.5905C27.25 40.6568 27.2237 40.7203 27.1768 40.7672C27.1299 40.8141 27.0663 40.8405 27 40.8405H24C23.9337 40.8405 23.8701 40.8141 23.8232 40.7672C23.7763 40.7203 23.75 40.6568 23.75 40.5905V24.5905C23.75 24.5242 23.7763 24.4606 23.8232 24.4137C23.8701 24.3668 23.9337 24.3405 24 24.3405H27C27.0663 24.3405 27.1299 24.3668 27.1768 24.4137C27.2237 24.4606 27.25 24.5242 27.25 24.5905V40.5905ZM40.25 40.5905C40.25 40.6568 40.2237 40.7203 40.1768 40.7672C40.1299 40.8141 40.0663 40.8405 40 40.8405H37C36.9337 40.8405 36.8701 40.8141 36.8232 40.7672C36.7763 40.7203 36.75 40.6568 36.75 40.5905V24.5905C36.75 24.5242 36.7763 24.4606 36.8232 24.4137C36.8701 24.3668 36.9337 24.3405 37 24.3405H40C40.0663 24.3405 40.1299 24.3668 40.1768 24.4137C40.2237 24.4606 40.25 24.5242 40.25 24.5905V40.5905ZM44.25 37.5905C44.25 37.6568 44.2237 37.7203 44.1768 37.7672C44.1299 37.8141 44.0663 37.8405 44 37.8405H41.75V27.3405H44C44.0663 27.3405 44.1299 27.3668 44.1768 27.4137C44.2237 27.4606 44.25 27.5241 44.25 27.5905V37.5905Z" fill="#F69134"/>
</svg>
